<?xml version="1.0" encoding="UTF-8"?>
<svg id="Layer_8" data-name="Layer 8" xmlns="http://www.w3.org/2000/svg" viewBox="0 0 460.46 464.07">
  <defs>
    <style>
      .cls-1 {
        fill: none;
      }

      .cls-1, .cls-2 {
        stroke: #fff;
        stroke-miterlimit: 10;
        stroke-width: 17px;
      }

      .cls-2 {
        fill: #fff;
      }
    </style>
  </defs>
  <g>
    <path class="cls-1" d="M150.8,212.15c16.43-.34,32.85-.67,49.28-1.01,31.19-.64,62.39-1.28,93.58-1.92"/>
    <path class="cls-1" d="M194.36,212.15c-8.41,15-9.9,32.24-2.16,44.02,14.48,22.04,58.21,20.29,70.35-1.81,9.78-17.81-5.17-41.19-5.84-42.21"/>
  </g>
  <path class="cls-1" d="M305.21,124.69c15.47-6.19,30.94-12.38,46.42-18.57"/>
  <path class="cls-1" d="M146.14,129.91c-17.38-4.84-34.75-9.67-52.13-14.51"/>
  <path class="cls-1" d="M60.9,412.85c-5.35-38.6-41.22-305.33,5.08-372.09,3.96-5.71,9.91-14.29,21.02-19.49,41.37-19.36,76.13,44.8,135.9,41.99,58.36-2.74,85.64-66.75,128.72-51.46,11.41,4.05,18.21,11.63,22.35,16.25,52.8,58.89,33.09,339.49,30.29,377.11-31.92,17.88-111.49,56.59-215.03,46.15-55.98-5.64-99.89-23.72-128.32-38.46Z"/>
  <circle class="cls-2" cx="114.5" cy="176.13" r="13.48"/>
  <path class="cls-1" d="M89.93,239.72c-9.02-4.3-23.19-9.76-41.33-11.68-19.25-2.04-35.06.73-44.99,3.27"/>
  <path class="cls-1" d="M87.01,277.03c-6.65-1.84-22.2-5.16-40.87,0-19.4,5.37-31.28,16.89-35.94,21.95"/>
  <path class="cls-1" d="M358.64,269.27c6.93-2.33,48.63-15.7,75.35,6.58,2.97,2.47,5.98,5.58,8.78,9.51"/>
  <circle class="cls-2" cx="325.49" cy="176.13" r="13.48"/>
  <path class="cls-1" d="M358.64,227.3c23.07-9.52,54.01-17.34,88.34-11.46,3.44.59,6.78,1.29,10.03,2.09"/>
</svg>